# Made in Blockbench 4.8.3
mtllib glass.mtl

o cuboid
v 1.25625 1.88125 -1.375
v 1.25625 1.88125 1.25
v 1.25625 0.38125 -1.375
v 1.25625 0.38125 1.25
v 1.36875 1.88125 -1.375
v 1.36875 1.88125 1.25
v 1.36875 0.38125 -1.375
v 1.36875 0.38125 1.25
vt 0.5 0.70703125
vt 0.3359375 0.70703125
vt 0.3359375 0.61328125
vt 0.5 0.61328125
vt 0.5 0.515625
vt 0.5 0.609375
vt 0.3359375 0.609375
vt 0.3359375 0.515625
vt 0.2890625 0.44921875
vt 0.28125 0.44921875
vt 0.28125 0.28515625
vt 0.2890625 0.28515625
vt 0.29296875 0.44921875
vt 0.29296875 0.28515625
vt 0.30078125 0.28515625
vt 0.30078125 0.44921875
vt 0.46875 0.33203125
vt 0.46875 0.42578125
vt 0.4609375 0.42578125
vt 0.4609375 0.33203125
vt 0.48046875 0.42578125
vt 0.47265625 0.42578125
vt 0.47265625 0.33203125
vt 0.48046875 0.33203125
vn -1 0 0
vn 1 0 0
vn 0 1 0
vn 0 -1 0
vn 0 0 -1
vn 0 0 1
usemtl m_66db2be9-aa29-1a92-6a40-b2fed7b5de03
f 2/1/1 1/2/1 3/3/1 4/4/1
f 7/5/2 5/6/2 6/7/2 8/8/2
f 5/9/3 1/10/3 2/11/3 6/12/3
f 4/13/4 3/14/4 7/15/4 8/16/4
f 3/17/5 1/18/5 5/19/5 7/20/5
f 6/21/6 2/22/6 4/23/6 8/24/6
o cuboid
v 1.375 1.88125 1.25625
v -1.375 1.88125 1.25625
v 1.375 0.38125 1.25625
v -1.375 0.38125 1.25625
v 1.375 1.88125 1.36875
v -1.375 1.88125 1.36875
v 1.375 0.38125 1.36875
v -1.375 0.38125 1.36875
vt 0.33203125 0.6953125
vt 0.16015625 0.6953125
vt 0.16015625 0.6015625
vt 0.33203125 0.6015625
vt 0.484375 0.90625
vt 0.484375 1
vt 0.3125 1
vt 0.3125 0.90625
vt 0.69140625 0.5078125
vt 0.69140625 0.515625
vt 0.51953125 0.515625
vt 0.51953125 0.5078125
vt 0.51953125 0.49609375
vt 0.69140625 0.49609375
vt 0.69140625 0.50390625
vt 0.51953125 0.50390625
vt 0.421875 0.33203125
vt 0.421875 0.42578125
vt 0.4140625 0.42578125
vt 0.4140625 0.33203125
vt 0.43359375 0.42578125
vt 0.42578125 0.42578125
vt 0.42578125 0.33203125
vt 0.43359375 0.33203125
vn 0 0 -1
vn 0 0 1
vn 0 1 0
vn 0 -1 0
vn 1 0 0
vn -1 0 0
usemtl m_66db2be9-aa29-1a92-6a40-b2fed7b5de03
f 10/25/7 9/26/7 11/27/7 12/28/7
f 15/29/8 13/30/8 14/31/8 16/32/8
f 13/33/9 9/34/9 10/35/9 14/36/9
f 12/37/10 11/38/10 15/39/10 16/40/10
f 11/41/11 9/42/11 13/43/11 15/44/11
f 14/45/12 10/46/12 12/47/12 16/48/12
o cuboid
v -1.25625 1.88125 1.25
v -1.25625 1.88125 -1.375
v -1.25625 0.38125 1.25
v -1.25625 0.38125 -1.375
v -1.36875 1.88125 1.25
v -1.36875 1.88125 -1.375
v -1.36875 0.38125 1.25
v -1.36875 0.38125 -1.375
vt 0.4765625 0.90234375
vt 0.3125 0.90234375
vt 0.3125 0.80859375
vt 0.4765625 0.80859375
vt 0.4765625 0.7109375
vt 0.4765625 0.8046875
vt 0.3125 0.8046875
vt 0.3125 0.7109375
vt 0.2578125 0.28515625
vt 0.265625 0.28515625
vt 0.265625 0.44921875
vt 0.2578125 0.44921875
vt 0.27734375 0.28515625
vt 0.27734375 0.44921875
vt 0.26953125 0.44921875
vt 0.26953125 0.28515625
vt 0.4453125 0.33203125
vt 0.4453125 0.42578125
vt 0.4375 0.42578125
vt 0.4375 0.33203125
vt 0.45703125 0.42578125
vt 0.44921875 0.42578125
vt 0.44921875 0.33203125
vt 0.45703125 0.33203125
vn 1 0 0
vn -1 0 0
vn 0 1 0
vn 0 -1 0
vn 0 0 1
vn 0 0 -1
usemtl m_66db2be9-aa29-1a92-6a40-b2fed7b5de03
f 18/49/13 17/50/13 19/51/13 20/52/13
f 23/53/14 21/54/14 22/55/14 24/56/14
f 21/57/15 17/58/15 18/59/15 22/60/15
f 20/61/16 19/62/16 23/63/16 24/64/16
f 19/65/17 17/66/17 21/67/17 23/68/17
f 22/69/18 18/70/18 20/71/18 24/72/18